<?xml version="1.0" standalone="no"?>
<!DOCTYPE svg PUBLIC "-//W3C//DTD SVG 20010904//EN"
 "http://www.w3.org/TR/2001/REC-SVG-20010904/DTD/svg10.dtd">
<svg version="1.0" xmlns="http://www.w3.org/2000/svg"
 width="512.000000pt" height="512.000000pt" viewBox="0 0 512.000000 512.000000"
 preserveAspectRatio="xMidYMid meet">

<g transform="translate(0.000000,512.000000) scale(0.100000,-0.100000)"
fill="#000000" stroke="none">
<path d="M4091 4824 c-139 -30 -217 -81 -394 -253 l-128 -125 -69 69 -69 69
49 52 c43 45 50 59 50 92 0 81 -83 127 -158 88 -33 -18 -1255 -1242 -1271
-1273 -37 -72 38 -168 116 -149 19 5 196 175 545 524 l518 517 70 -70 70 -70
-1289 -1290 c-1011 -1011 -1294 -1300 -1310 -1335 -11 -25 -49 -115 -86 -200
-36 -85 -70 -164 -75 -175 -5 -11 -39 -90 -75 -175 -36 -85 -70 -164 -75 -175
-5 -11 -29 -69 -55 -130 -25 -60 -50 -119 -55 -130 -57 -123 -120 -285 -120
-307 0 -38 61 -98 100 -98 24 0 80 21 215 80 11 5 83 36 160 69 77 32 219 93
315 134 96 42 261 112 365 157 105 44 211 90 236 102 37 16 345 319 1551 1527
l1505 1506 41 85 c93 188 94 374 5 558 -52 107 -168 223 -275 275 -132 64
-269 81 -407 51z m246 -212 c217 -68 339 -291 274 -501 -10 -33 -30 -80 -44
-103 -25 -42 -213 -236 -220 -227 -2 2 -16 31 -32 64 -94 198 -272 376 -470
470 -33 16 -62 30 -64 32 -9 7 185 195 227 220 103 61 224 78 329 45z m-653
-457 c36 -14 76 -30 88 -37 193 -107 315 -247 388 -446 l23 -64 -1238 -1238
-1238 -1238 -41 82 c-102 204 -294 390 -483 468 l-54 22 1238 1238 c681 681
1241 1238 1244 1238 4 0 36 -11 73 -25z m-2578 -2670 c184 -84 340 -257 408
-453 l15 -43 -45 -19 c-25 -11 -78 -34 -117 -50 -40 -17 -81 -35 -92 -40 -11
-5 -90 -39 -175 -75 -85 -36 -164 -70 -175 -75 -169 -75 -328 -141 -331 -137
-2 2 6 28 20 58 13 30 49 115 81 189 32 74 63 149 71 165 7 17 41 95 75 175
34 80 69 163 79 185 9 22 28 66 41 98 23 56 25 58 55 53 18 -2 58 -16 90 -31z"/>
</g>
</svg>
